<svg fill="#FFFFFF" xmlns="http://www.w3.org/2000/svg"  viewBox="0 0 50 50" width="50px" height="50px"><path d="M 24.875 2 C 23.59375 2 16.925781 2.21875 11.5625 6.625 C 11.488281 6.683594 11.429688 6.765625 11.375 6.84375 C 10.105469 8.707031 9.523438 12.914063 9.09375 17.1875 C 9.089844 17.238281 9.097656 17.265625 9.09375 17.3125 C 8.507813 17.558594 8 18.164063 8 18.9375 L 8.3125 27.6875 C 8.3125 28.390625 8.847656 29.195313 9.65625 29.375 C 10.128906 31.492188 11.664063 38.265625 12.40625 39.75 C 13.351563 41.636719 16.269531 45.765625 19.0625 47.28125 C 20.59375 48.046875 24.121094 48.09375 24.8125 48.09375 C 25.640625 48.09375 29.832031 48.054688 31.0625 47.28125 C 33.765625 45.871094 36.765625 41.621094 37.6875 39.78125 C 38.4375 38.371094 39.632813 31.820313 40.0625 29.40625 C 40.84375 29.363281 41.6875 28.65625 41.6875 27.71875 L 42 18.90625 C 42 18.28125 41.5625 17.585938 40.90625 17.3125 C 40.894531 17.191406 40.886719 17.074219 40.875 16.9375 C 40.636719 14.117188 40.203125 8.859375 38.59375 6.78125 C 38.546875 6.722656 38.496094 6.671875 38.4375 6.625 C 33.074219 2.21875 26.40625 2 25.125 2 Z M 30.75 7.59375 C 30.75 7.59375 32.558594 7.945313 33.84375 8.96875 C 34.765625 9.902344 35.875 11.3125 35.875 11.3125 L 35.59375 22.5 L 36.78125 26.15625 C 36.613281 26.65625 36.335938 28.472656 35.875 29.125 C 35.414063 29.777344 32.46875 35.46875 32.46875 35.46875 C 32.46875 35.46875 31.414063 37.761719 31.875 39.8125 C 32.1875 41.277344 32 42.3125 32 42.3125 L 31.1875 43.25 C 31 43.4375 30.714844 43.53125 30.53125 43.53125 C 30.441406 43.53125 30.339844 43.4375 30.25 43.4375 L 28.59375 42.6875 L 21.96875 42.6875 L 20.3125 43.4375 C 20.21875 43.53125 20.121094 43.53125 20.03125 43.53125 C 19.753906 43.53125 19.589844 43.433594 19.40625 43.25 L 18.5625 42.3125 C 18.5625 42.3125 18.347656 41.054688 18.53125 39.65625 C 18.992188 37.605469 18.125 35.46875 18.125 35.46875 C 18.125 35.46875 14.710938 29.777344 14.25 29.125 C 13.789063 28.566406 13.125 26.375 13.125 26.375 L 14.71875 22.5 L 14.4375 11.3125 C 14.4375 11.3125 15.367188 9.902344 16.5625 8.96875 C 17.667969 8.128906 19.6875 7.90625 19.6875 7.90625 L 20.8125 16.125 C 20.8125 16.125 21.0625 17.53125 21.0625 17.71875 C 21.0625 17.90625 22.1875 18.46875 22.1875 18.46875 L 28.1875 18.46875 C 28.1875 18.46875 29.3125 17.875 29.3125 17.6875 C 29.3125 17.59375 29.5625 16.125 29.5625 16.125 Z M 34.71875 25 C 34.65625 25.007813 34.574219 25.042969 34.5 25.09375 C 33.5 25.394531 30.707031 26.707031 27.90625 26.90625 C 27.207031 27.207031 27.6875 27.5 27.6875 27.5 C 27.6875 27.5 28.300781 28.492188 28.5 28.59375 C 28.699219 28.894531 29.09375 28.90625 29.09375 28.90625 L 32.3125 28.6875 C 32.3125 28.6875 32.914063 28.707031 33.3125 28.40625 C 33.8125 28.207031 35.511719 27.09375 36.3125 26.59375 C 36.613281 26.394531 36.3125 26.09375 36.3125 26.09375 L 35 25.09375 C 35 25.09375 34.902344 24.972656 34.71875 25 Z M 15.03125 25.125 C 14.945313 25.148438 14.90625 25.1875 14.90625 25.1875 L 13.59375 26.1875 C 13.59375 26.1875 13.292969 26.488281 13.59375 26.6875 C 14.394531 27.1875 16.09375 28.300781 16.59375 28.5 C 16.992188 28.800781 17.59375 28.8125 17.59375 28.8125 L 20.8125 29 C 20.8125 29 21.300781 28.992188 21.5 28.59375 C 21.699219 28.492188 22.3125 27.5 22.3125 27.5 C 22.3125 27.5 22.800781 27.199219 22 27 C 19.199219 26.800781 16.40625 25.488281 15.40625 25.1875 C 15.257813 25.085938 15.117188 25.101563 15.03125 25.125 Z"/></svg>