<svg fill="#FFFFFF" xmlns="http://www.w3.org/2000/svg"  viewBox="0 0 64 64" width="48px" height="48px"><path d="M32,7c11.589,0,20,8.832,20,21c0,13.135-8.921,29-20,29S12,41.135,12,28C12,15.832,20.411,7,32,7z M29.423,31.474	c0.236-0.708-0.084-1.482-0.752-1.816c-2.931-1.466-8.267-5.942-9.061-12.901C17.319,19.67,16,23.53,16,28	c0,4.237,1.117,8.91,2.969,13.059C19.609,41.336,20.285,41.5,21,41.5C25.836,41.5,28.865,33.148,29.423,31.474z M45.031,41.059	C46.883,36.91,48,32.237,48,28c0-4.47-1.319-8.33-3.61-11.242c-0.794,6.958-6.13,11.435-9.061,12.901	c-0.668,0.334-0.988,1.108-0.752,1.816C35.135,33.148,38.164,41.5,43,41.5C43.715,41.5,44.391,41.336,45.031,41.059z"/></svg>